<svg width="36" height="36" viewBox="0 0 36 36" fill="none" xmlns="http://www.w3.org/2000/svg">
<circle cx="18" cy="18" r="18" fill="#E7F5F5"/>
<path d="M20.0827 17.5H15.916C15.5743 17.5 15.291 17.2167 15.291 16.875C15.291 16.5333 15.5743 16.25 15.916 16.25H20.0827C20.4243 16.25 20.7077 16.5333 20.7077 16.875C20.7077 17.2167 20.4243 17.5 20.0827 17.5Z" fill="#292D32"/>
<path d="M12.1078 26.9583C11.7578 26.9583 11.4328 26.875 11.1411 26.7083C10.4995 26.3333 10.1328 25.575 10.1328 24.6333V12.8833C10.1328 10.7667 11.8578 9.04166 13.9745 9.04166H22.0161C24.1328 9.04166 25.8578 10.7667 25.8578 12.8833V24.625C25.8578 25.5667 25.4911 26.325 24.8495 26.7C24.2078 27.075 23.3661 27.0333 22.5411 26.575L18.4745 24.3167C18.2328 24.1833 17.7578 24.1833 17.5161 24.3167L13.4495 26.575C12.9995 26.825 12.5411 26.9583 12.1078 26.9583ZM13.9828 10.2917C12.5578 10.2917 11.3911 11.4583 11.3911 12.8833V24.625C11.3911 25.1167 11.5328 25.4833 11.7828 25.625C12.0328 25.775 12.4245 25.725 12.8495 25.4833L16.9161 23.225C17.5328 22.8833 18.4661 22.8833 19.0828 23.225L23.1495 25.4833C23.5745 25.725 23.9661 25.775 24.2161 25.625C24.4661 25.475 24.6078 25.1083 24.6078 24.625V12.8833C24.6078 11.4583 23.4411 10.2917 22.0161 10.2917H13.9828Z" fill="#292D32"/>
</svg>
