<svg width="197" height="101" viewBox="0 0 197 101" fill="none" xmlns="http://www.w3.org/2000/svg">
<circle cx="20.241" cy="23.7585" r="20.241" fill="#F5F5F5"/>
<g filter="url(#filter0_d_78_426)">
<circle cx="72.2878" cy="23.7585" r="20.241" fill="#A2228D"/>
</g>
<circle cx="124.338" cy="23.7585" r="20.241" fill="#F5F5F5"/>
<circle cx="176.385" cy="23.7585" r="20.241" fill="#F5F5F5"/>
<g clip-path="url(#clip0_78_426)">
<path d="M80.4541 16.5399C79.7211 17.057 78.9095 17.4524 78.0506 17.7111C77.5896 17.181 76.9769 16.8053 76.2954 16.6348C75.614 16.4643 74.8966 16.5072 74.2403 16.7577C73.584 17.0082 73.0204 17.4542 72.6259 18.0354C72.2313 18.6166 72.0248 19.305 72.0342 20.0074V20.7728C70.689 20.8077 69.3561 20.5094 68.1541 19.9044C66.9522 19.2994 65.9185 18.4066 65.1452 17.3054C65.1452 17.3054 62.0834 24.1944 68.9724 27.2562C67.396 28.3263 65.518 28.8628 63.6143 28.7871C70.5033 32.6143 78.9232 28.7871 78.9232 19.9844C78.9225 19.7712 78.902 19.5585 78.862 19.3491C79.6432 18.5787 80.1945 17.606 80.4541 16.5399Z" fill="white"/>
</g>
<g clip-path="url(#clip1_78_426)">
<path fill-rule="evenodd" clip-rule="evenodd" d="M132.557 18.0762C132.334 17.4999 131.993 16.9765 131.556 16.5396C131.119 16.1027 130.596 15.762 130.02 15.5392C129.468 15.3246 128.837 15.1781 127.914 15.1358C126.991 15.0936 126.693 15.085 124.337 15.085C121.981 15.085 121.686 15.0951 120.761 15.1358C119.835 15.1765 119.207 15.3246 118.655 15.5392C118.079 15.7618 117.555 16.1025 117.118 16.5394C116.682 16.9763 116.341 17.4997 116.118 18.0762C115.904 18.6281 115.757 19.2584 115.715 20.1817C115.673 21.105 115.664 21.4026 115.664 23.7584C115.664 26.1142 115.674 26.4098 115.715 27.3351C115.756 28.2604 115.904 28.8887 116.118 29.4406C116.341 30.0169 116.682 30.5403 117.119 30.9772C117.556 31.4141 118.079 31.7548 118.655 31.9775C119.207 32.1922 119.837 32.3387 120.761 32.3809C121.684 32.4232 121.982 32.4318 124.337 32.4318C126.692 32.4318 126.989 32.4216 127.914 32.3809C128.84 32.3402 129.468 32.1922 130.02 31.9775C130.596 31.7546 131.119 31.4138 131.556 30.9769C131.993 30.54 132.334 30.0168 132.557 29.4406C132.771 28.8887 132.918 28.2584 132.96 27.3351C133.002 26.4118 133.011 26.1142 133.011 23.7584C133.011 21.4026 133.001 21.107 132.96 20.1817C132.919 19.2563 132.771 18.6281 132.557 18.0762ZM124.337 28.2126C123.456 28.2126 122.595 27.9513 121.862 27.4618C121.129 26.9723 120.558 26.2765 120.221 25.4625C119.884 24.6485 119.796 23.7528 119.968 22.8886C120.14 22.0245 120.564 21.2307 121.187 20.6077C121.81 19.9847 122.604 19.5605 123.468 19.3887C124.332 19.2168 125.228 19.3051 126.042 19.6424C126.856 19.9796 127.552 20.5507 128.041 21.2833C128.531 22.016 128.792 22.8773 128.792 23.7584C128.792 24.3434 128.676 24.9226 128.453 25.4631C128.229 26.0035 127.901 26.4946 127.487 26.9082C127.073 27.3218 126.582 27.6499 126.042 27.8737C125.501 28.0975 124.922 28.2127 124.337 28.2126ZM128.966 20.169C128.76 20.169 128.559 20.1079 128.388 19.9935C128.216 19.879 128.083 19.7164 128.004 19.5261C127.925 19.3359 127.905 19.1265 127.945 18.9245C127.985 18.7225 128.084 18.5369 128.23 18.3913C128.375 18.2457 128.561 18.1465 128.763 18.1063C128.965 18.0662 129.174 18.0868 129.365 18.1656C129.555 18.2444 129.718 18.3779 129.832 18.5491C129.946 18.7204 130.008 18.9217 130.008 19.1276C130.008 19.4032 129.898 19.6675 129.704 19.8627C129.509 20.0579 129.245 20.168 128.97 20.169H128.966ZM127.227 23.7584C127.228 24.3304 127.058 24.8896 126.74 25.3652C126.423 25.8409 125.971 26.2116 125.442 26.4306C124.914 26.6496 124.333 26.7069 123.772 26.5954C123.211 26.4838 122.695 26.2084 122.291 25.804C121.886 25.3996 121.611 24.8843 121.499 24.3233C121.387 23.7623 121.445 23.1808 121.664 22.6523C121.882 22.1238 122.253 21.6721 122.729 21.3543C123.204 21.0365 123.763 20.8669 124.335 20.8669C124.715 20.8666 125.092 20.9412 125.443 21.0864C125.794 21.2316 126.113 21.4446 126.381 21.7131C126.65 21.9816 126.863 22.3005 127.009 22.6514C127.154 23.0023 127.229 23.3785 127.229 23.7584H127.227Z" fill="#CCCCCC"/>
</g>
<g clip-path="url(#clip2_78_426)">
<path fill-rule="evenodd" clip-rule="evenodd" d="M22.0665 24.8605H24.6016L25.0835 21.7153H22.0665V19.6744C22.0665 18.8147 22.4875 17.9749 23.8395 17.9749H25.2117V15.2974C25.2117 15.2974 23.9665 15.085 22.7761 15.085C20.292 15.085 18.6671 16.5904 18.6671 19.318V21.7153H15.9043V24.8605H18.6671V32.3019C19.7934 32.4785 20.9402 32.4785 22.0665 32.3019V24.8605Z" fill="#CCCCCC"/>
</g>
<g clip-path="url(#clip3_78_426)">
<path fill-rule="evenodd" clip-rule="evenodd" d="M187.536 16.3796C186.595 15.3967 185.546 15.3923 185.063 15.3345C181.612 15.085 176.434 15.085 176.434 15.085H176.423C176.423 15.085 171.246 15.085 167.794 15.3345C167.312 15.3923 166.26 15.3967 165.322 16.3796C164.582 17.1281 164.342 18.8278 164.342 18.8278C164.189 20.1532 164.106 21.4859 164.096 22.8201V24.6912C164.106 26.0254 164.189 27.3581 164.342 28.6836C164.342 28.6836 164.582 30.3832 165.322 31.1318C166.263 32.1147 167.492 32.0836 168.042 32.1863C170.015 32.3758 176.432 32.4343 176.432 32.4343C176.432 32.4343 181.616 32.4264 185.067 32.1769C185.55 32.119 186.601 32.1147 187.539 31.1318C188.278 30.3832 188.519 28.6836 188.519 28.6836C188.673 27.3581 188.755 26.0254 188.766 24.6912V22.8201C188.755 21.4859 188.673 20.1532 188.519 18.8278C188.519 18.8278 188.275 17.1281 187.536 16.3796ZM173.881 26.9593V20.0284L180.546 23.5058L173.881 26.9593Z" fill="#CCCCCC"/>
</g>
<defs>
<filter id="filter0_d_78_426" x="22.0469" y="0.517578" width="100.481" height="100.482" filterUnits="userSpaceOnUse" color-interpolation-filters="sRGB">
<feFlood flood-opacity="0" result="BackgroundImageFix"/>
<feColorMatrix in="SourceAlpha" type="matrix" values="0 0 0 0 0 0 0 0 0 0 0 0 0 0 0 0 0 0 127 0" result="hardAlpha"/>
<feOffset dy="27"/>
<feGaussianBlur stdDeviation="15"/>
<feComposite in2="hardAlpha" operator="out"/>
<feColorMatrix type="matrix" values="0 0 0 0 0 0 0 0 0 0 0 0 0 0 0 0 0 0 0.3 0"/>
<feBlend mode="normal" in2="BackgroundImageFix" result="effect1_dropShadow_78_426"/>
<feBlend mode="normal" in="SourceGraphic" in2="effect1_dropShadow_78_426" result="shape"/>
</filter>
<clipPath id="clip0_78_426">
<rect width="17.3793" height="17.3494" fill="white" transform="translate(63.6143 15.085)"/>
</clipPath>
<clipPath id="clip1_78_426">
<rect width="17.3494" height="17.3494" fill="white" transform="translate(115.662 15.085)"/>
</clipPath>
<clipPath id="clip2_78_426">
<rect width="9.30742" height="17.3494" fill="white" transform="translate(15.9043 15.085)"/>
</clipPath>
<clipPath id="clip3_78_426">
<rect width="24.6665" height="17.3494" fill="white" transform="translate(164.096 15.085)"/>
</clipPath>
</defs>
</svg>
